<?xml version="1.0" encoding="UTF-8"?>
<svg id="Layer_2" data-name="Layer 2" xmlns="http://www.w3.org/2000/svg" viewBox="0 0 1768.29 1042.59">
  <defs>
    <style>
      .cls-1 {
        fill: #fff;
      }

      .cls-2 {
        fill: #101010;
      }
    </style>
  </defs>
  <g id="_ÎÓÈ_1" data-name="—ÎÓÈ_1">
    <g>
      <g>
        <path class="cls-1" d="m450.6,959.04c.23-2.63.14-5.33-.32-8.06l-17.52-104.94c-1.39-8.34-6.04-15.78-12.92-20.69-6.88-4.91-15.43-6.89-23.77-5.5-22.84,3.82-48.78,9.26-77.11,16.17-27.88,6.81-56.78,14.36-85.91,22.45-15.49,4.3-30.17,8.42-43.92,12.32l-40.62-243.21c-2.9-17.36-19.32-29.09-36.69-26.19l-85.2,14.23c-8.34,1.39-15.78,6.04-20.69,12.92-3.33,4.67-5.32,10.11-5.81,15.73-.23,2.66-.13,5.36.31,8.03l60.73,363.64c1.39,8.34,6.04,15.78,12.92,20.69,6.88,4.91,15.43,6.89,23.77,5.5l326.24-54.48c14.64-2.44,25.27-14.5,26.51-28.63Z"/>
        <path class="cls-1" d="m1768.17,62.63c.77-8.78-2.21-17.67-8.09-24.24-9.6-10.71-17.94-12.15-71.61-17.25-27.11-2.58-64.95-5.71-109.45-9.06-75.45-5.68-162.7-11.4-179.54-11.76-227.34-4.92-462.41,49.12-661.89,152.17-150.85,77.93-289.13,189.02-399.89,321.25-71.46,85.32-131.47,176.03-178.35,269.6-24.57,49.03-45.68,99.39-62.76,149.69-.57,1.67-1.22,3.33-1.92,5.1-1.94,4.93-4.36,11.07-5.01,18.47-.76,8.68.6,25.26,18.23,38.8,9.48,7.28,20.67,9.66,29.66,11.57,1.58.34,3.96.84,4.74,1.08l3.85,1.2c4.66,1.45,12.47,3.89,19.11,5.94,3.39,1.05,6.48,2,8.73,2.67,1.28.38,2.31.69,3.03.9,19.32,5.53,34.78-5.9,39.73-19.6,0,0,1.59-4.42,2.11-5.86,49.24-130.57,131.22-260.59,237.08-375.99,144.5-157.52,330.73-270.45,538.55-326.56,206.52-55.77,440.49-57.57,695.43-5.37,3.62.74,7.24,1.49,10.86,2.25,8.4,1.77,17.15.07,24.29-4.7,7.13-4.77,12.04-12.22,13.61-20.66l29.1-156.58c.19-1.01.33-2.04.42-3.06Z"/>
      </g>
      <g>
        <path class="cls-2" d="m418.84,956.24l-326.24,54.48-60.73-363.64,85.2-14.23,46.5,278.45c23.09-6.7,49.1-14.07,78.01-22.1,28.93-8.04,57.23-15.43,84.94-22.2,27.7-6.76,52.64-12,74.8-15.7l17.53,104.94Z"/>
        <path class="cls-2" d="m186.75,948.36s2.19-6.09,2.2-6.11c53.7-142.5,140.81-274.55,243.48-386.48,149.9-163.41,339.92-278.05,553.73-335.79,232.72-62.84,475.61-53.85,710.13-5.83,3.68.75,7.35,1.52,11.03,2.29,0,0,28.28-152.16,29.1-156.58,1.08-5.89-307.65-27.04-337.64-27.69-220.92-4.78-450.11,47.13-646.57,148.62-148.68,76.8-282.14,184.52-390.08,313.4-67.72,80.86-127.02,169.07-174.29,263.42-23.61,47.11-44.13,95.75-61.07,145.66-4.38,12.9-9.83,18.89.53,26.85,5.45,4.19,17.74,5.43,24.34,7.46,2.23.69,35.05,10.97,35.11,10.79Z"/>
      </g>
    </g>
  </g>
</svg>