<?xml version="1.0" encoding="UTF-8"?>
<svg id="Layer_2" data-name="Layer 2" xmlns="http://www.w3.org/2000/svg" viewBox="0 0 1077.89 649.41">
  <defs>
    <style>
      .cls-1 {
        fill: #fff;
      }

      .cls-2 {
        fill: #1808b5;
      }
    </style>
  </defs>
  <g id="_ÎÓÈ_1" data-name="—ÎÓÈ_1">
    <g>
      <path class="cls-2" d="m765.08,641.43L187.92,492.75C54.05,458.26-26.51,321.79,7.97,187.92h0C42.46,54.05,178.94-26.51,312.8,7.97l577.17,148.69c133.87,34.49,214.43,170.96,179.94,304.83h0c-34.49,133.87-170.96,214.43-304.83,179.94Z"/>
      <path class="cls-1" d="m761.15,616.99L203.17,473.24C81.64,441.93,8.24,317.59,39.55,196.05,70.85,74.52,195.2,1.11,316.74,32.42l557.98,143.74c121.53,31.31,194.94,155.66,163.63,277.19s-155.66,194.94-277.19,163.63ZM313.3,45.75C199.12,16.34,82.29,85.3,52.88,199.49c-29.42,114.18,39.55,231.01,153.73,260.43l557.98,143.74c114.18,29.42,231.01-39.55,260.43-153.73,29.42-114.18-39.55-231.01-153.73-260.43L313.3,45.75Z"/>
      <g>
        <path class="cls-1" d="m113.69,330.31l56.61-219.76,40.99,10.56-56.61,219.76-40.99-10.56Zm140.31,36.14l22.17-86.08c2.22-8.62,2.59-16.14,1.11-22.58-1.48-6.43-5.05-11.94-10.7-16.54-5.66-4.59-13.84-8.27-24.56-11.03-10.3-2.65-20.16-3.12-29.56-1.4-9.41,1.73-17.55,5.01-24.39,9.85-6.85,4.85-11.49,10.66-13.9,17.43l4.15-17.42c2.84-6.67,7.04-12.98,12.61-18.94,5.57-5.96,12.24-10.97,20.01-15.02,7.77-4.05,16.56-6.66,26.39-7.83,9.82-1.17,20.31-.31,31.45,2.56,9.67,2.49,18.29,6,25.87,10.53,7.57,4.53,13.76,10.1,18.56,16.72,4.8,6.61,7.91,14.09,9.36,22.41,1.44,8.33.86,17.54-1.74,27.63l-25.83,100.27-40.99-10.56Z"/>
        <path class="cls-1" d="m488.42,371.37l39.73,10.23c-4.45,10.28-11.37,18.7-20.79,25.24-9.42,6.54-20.95,10.63-34.6,12.27-13.65,1.64-29.41.16-47.27-4.45-19.97-5.15-36.8-12.9-50.49-23.26-13.7-10.36-23.28-22.75-28.76-37.16-5.48-14.41-6-30.23-1.56-47.47,4.44-17.23,12.45-30.92,24.02-41.05,11.57-10.13,25.72-16.52,42.43-19.16,16.7-2.64,35.15-1.37,55.33,3.83,20.6,5.31,36.89,12.98,48.88,23.01,11.98,10.04,19.59,22.48,22.83,37.32,3.24,14.84,1.7,32.33-4.6,52.44l-149.45-38.5c-1.01,8.26.12,16.29,3.38,24.07,3.26,7.79,8.66,14.67,16.2,20.65,7.54,5.98,17.19,10.48,28.96,13.51,13.03,3.36,24.49,3.9,34.38,1.63,9.88-2.27,17.01-6.65,21.38-13.15Zm-31.89-90.25c-15.13-3.9-28.29-3.75-39.45.43-11.16,4.19-19.36,10.76-24.58,19.72l106.57,27.45c1.65-10.78-1.18-20.42-8.52-28.92-7.34-8.5-18.68-14.73-34.02-18.68Z"/>
        <path class="cls-1" d="m605.73,222.72l40.99,10.56-56.61,219.76-40.99-10.56,56.61-219.76Z"/>
        <path class="cls-1" d="m691.18,244.73l40.99,10.56-56.61,219.76-40.99-10.56,56.61-219.76Z"/>
        <path class="cls-1" d="m808.26,513.27c-19.76-5.09-36.34-12.72-49.74-22.9-13.41-10.18-22.76-22.39-28.05-36.64-5.3-14.25-5.67-30.21-1.12-47.86,4.55-17.66,12.61-31.55,24.19-41.68,11.57-10.13,25.69-16.41,42.34-18.85,16.65-2.44,34.86-1.11,54.62,3.98,19.76,5.09,36.24,12.7,49.43,22.82,13.19,10.12,22.41,22.41,27.65,36.88,5.24,14.46,5.59,30.52,1.04,48.18-4.55,17.66-12.59,31.45-24.1,41.37-11.52,9.92-25.5,16.12-41.95,18.61-16.44,2.49-34.55,1.19-54.3-3.9Zm8.12-31.53c10.93,2.81,21.26,3.41,30.98,1.76,9.72-1.64,18.07-5.54,25.04-11.71,6.97-6.16,11.83-14.6,14.59-25.32s2.61-20.56-.46-29.54c-3.07-8.97-8.4-16.56-15.99-22.78-7.59-6.21-16.96-10.76-28.09-13.63-10.93-2.82-21.32-3.36-31.18-1.64-9.86,1.72-18.34,5.7-25.43,11.94-7.1,6.24-12.06,14.83-14.87,25.76-2.76,10.72-2.58,20.47.54,29.22,3.12,8.76,8.6,16.22,16.42,22.39,7.83,6.17,17.31,10.68,28.45,13.55Z"/>
      </g>
    </g>
  </g>
</svg>