<?xml version="1.0" encoding="UTF-8"?>
<svg id="Layer_2" data-name="Layer 2" xmlns="http://www.w3.org/2000/svg" viewBox="0 0 1284.71 1297.57">
  <defs>
    <style>
      .cls-1 {
        fill: #e2ff2d;
      }

      .cls-2 {
        fill: #101010;
      }
    </style>
  </defs>
  <g id="_ÎÓÈ_1" data-name="—ÎÓÈ_1">
    <g>
      <ellipse class="cls-1" cx="642.36" cy="648.79" rx="640.48" ry="650.32" transform="translate(-211.88 326.56) rotate(-24.62)"/>
      <g>
        <path class="cls-2" d="m870.55,1146.8c-270.45,123.92-592.85,1.33-718.67-273.27-125.83-274.61-8.17-598.83,262.29-722.76,270.45-123.92,592.85-1.33,718.67,273.27,125.83,274.61,8.17,598.83-262.29,722.76ZM432.37,190.52c-248.87,114.03-357.14,412.38-241.35,665.07,115.78,252.69,412.45,365.5,661.31,251.46s357.14-412.38,241.35-665.07c-115.78-252.69-412.45-365.5-661.31-251.46Z"/>
        <path class="cls-2" d="m797.1,986.5c-174.39,79.91-383.51,8.46-476.07-162.67-5.74-10.62-1.93-23.83,8.52-29.51,10.42-5.77,23.58-1.67,29.32,8.95,81.65,150.96,266.15,213.99,420.02,143.49,153.87-70.5,226.6-251.39,165.58-411.81-4.3-11.28,1.2-23.92,12.37-28.05,11.13-4.21,23.62,1.53,27.91,12.81,69.17,181.84-13.25,386.88-187.64,466.79Z"/>
        <g>
          <ellipse class="cls-2" cx="465.73" cy="602.9" rx="83.56" ry="161.86" transform="translate(-208.81 248.8) rotate(-24.62)"/>
          <ellipse class="cls-2" cx="722.93" cy="485.05" rx="83.56" ry="161.86" transform="translate(-136.34 345.23) rotate(-24.62)"/>
        </g>
      </g>
    </g>
  </g>
</svg>