<?xml version="1.0" encoding="UTF-8"?>
<svg id="Layer_2" data-name="Layer 2" xmlns="http://www.w3.org/2000/svg" viewBox="0 0 949.28 949.28">
  <defs>
    <style>
      .cls-1 {
        fill: #e2ff2d;
      }

      .cls-2 {
        fill: #101010;
      }
    </style>
  </defs>
  <g id="_ÎÓÈ_1" data-name="—ÎÓÈ_1">
    <g>
      <circle class="cls-1" cx="474.64" cy="474.64" r="474.53" transform="translate(-196.6 474.64) rotate(-45)"/>
      <g>
        <path class="cls-2" d="m641.15,838.03c-200.37,91.81-438.09,3.49-529.9-196.88-91.81-200.37-3.49-438.09,196.88-529.9,200.37-91.81,438.09-3.49,529.9,196.88,91.81,200.37,3.49,438.09-196.88,529.9ZM321.42,140.25C137.04,224.74,55.77,443.48,140.25,627.86c84.48,184.38,303.22,265.65,487.61,181.17s265.65-303.22,181.17-487.61c-84.48-184.38-303.22-265.65-487.61-181.17Z"/>
        <path class="cls-2" d="m587.55,721.06c-129.21,59.2-283.43,7.81-351.09-116.99-4.2-7.74-1.32-17.42,6.42-21.62,7.73-4.26,17.43-1.32,21.63,6.42,59.7,110.1,195.76,155.43,309.76,103.19,114-52.24,168.51-184.89,124.1-301.99-3.13-8.24.99-17.51,9.26-20.57,8.24-3.12,17.45,1.02,20.57,9.26,50.34,132.75-11.43,283.11-140.64,342.31Z"/>
        <g>
          <ellipse class="cls-2" cx="344.32" cy="441.82" rx="61.91" ry="118.11" transform="translate(-152.75 183.59) rotate(-24.62)"/>
          <ellipse class="cls-2" cx="534.87" cy="354.51" rx="61.91" ry="118.11" transform="translate(-99.06 255.03) rotate(-24.62)"/>
        </g>
      </g>
    </g>
  </g>
</svg>