<?xml version="1.0" encoding="UTF-8"?>
<svg id="Layer_2" data-name="Layer 2" xmlns="http://www.w3.org/2000/svg" viewBox="0 0 659.9 659.9">
  <defs>
    <style>
      .cls-1 {
        fill: #fff;
      }
    </style>
  </defs>
  <g id="_ÎÓÈ_1" data-name="—ÎÓÈ_1">
    <g>
      <path class="cls-1" d="m228.17,643.78C55.13,587.66-40,401.22,16.12,228.17,72.24,55.13,258.68-40,431.73,16.12c173.05,56.12,268.17,242.56,212.05,415.61-56.12,173.05-242.56,268.17-415.61,212.05ZM428.78,25.21C260.75-29.28,79.71,63.09,25.21,231.12c-54.49,168.03,37.88,349.07,205.91,403.56,168.03,54.49,349.07-37.88,403.56-205.91,54.49-168.03-37.88-349.07-205.91-403.56Z"/>
      <g>
        <path class="cls-1" d="m409.67,92.07l7.46,3.13c-.38,1.32-.27,2.69.32,4.13.59,1.44,1.59,2.79,3.01,4.06,1.42,1.27,3.16,2.33,5.23,3.2,1.88.79,3.51,1.23,4.9,1.34,1.39.1,2.53-.09,3.43-.58.9-.49,1.56-1.25,2-2.28.42-.99.37-1.91-.14-2.76-.51-.84-1.49-1.77-2.93-2.79-1.44-1.01-3.37-2.25-5.8-3.7-1.9-1.14-3.65-2.36-5.23-3.66-1.58-1.29-2.89-2.65-3.91-4.08-1.03-1.43-1.68-2.92-1.95-4.49-.28-1.57-.06-3.2.65-4.89.88-2.1,2.25-3.69,4.12-4.78,1.86-1.08,4.16-1.57,6.89-1.47,2.73.1,5.81.88,9.24,2.31,5.16,2.16,8.67,4.93,10.54,8.29,1.86,3.36,1.95,6.94.27,10.74l-7.19-3.01c.76-2.24.51-4.19-.77-5.85-1.28-1.66-3.18-3.03-5.73-4.09-2.36-.99-4.45-1.45-6.27-1.4-1.82.06-3.09.94-3.8,2.63-.28.66-.34,1.32-.18,1.97.16.65.6,1.35,1.33,2.09.73.74,1.78,1.59,3.15,2.56,1.37.97,3.11,2.09,5.22,3.36,1.98,1.18,3.72,2.37,5.22,3.59,1.51,1.22,2.71,2.48,3.61,3.79.9,1.31,1.43,2.71,1.58,4.21.15,1.49-.14,3.13-.88,4.9-.91,2.18-2.27,3.83-4.06,4.96-1.8,1.13-4.05,1.65-6.76,1.55-2.71-.1-5.93-.93-9.65-2.49-2.65-1.11-4.88-2.38-6.66-3.8-1.79-1.42-3.22-2.92-4.29-4.5-1.07-1.58-1.83-3.13-2.27-4.66-.44-1.53-.62-2.95-.53-4.25.09-1.3.37-2.4.83-3.29Z"/>
        <path class="cls-1" d="m461.7,86.61l34.43,22.05-3.59,5.6-34.44-22.05,3.59-5.6Zm10.75,13.79l6.72,4.3-17.78,27.77-6.72-4.3,17.78-27.77Z"/>
        <path class="cls-1" d="m473.86,140.04l39.68-16.19,6.35,5.85-12.73,41-6.4-5.89,11.94-36.52,2.82,2.6-35.32,14.99-6.35-5.85Zm12.83.32l4.51-4.9,18.88,17.38-4.51,4.9-18.88-17.38Z"/>
        <path class="cls-1" d="m509.56,173.77l31.34-22.86,15.51,21.26c1.77,2.42,2.97,4.77,3.62,7.04.65,2.28.63,4.43-.04,6.45-.67,2.02-2.11,3.84-4.31,5.44-1.49,1.08-2.93,1.74-4.34,1.98-1.41.24-2.77.13-4.09-.32-1.32-.45-2.58-1.15-3.79-2.09-1.21-.95-2.36-2.06-3.44-3.35l-.11-.96c1.62,2.28,2.78,4.28,3.51,5.98.72,1.7.9,3.24.54,4.61-.36,1.37-1.41,2.7-3.15,3.97l-7.46,5.44-4.7-6.44,7.02-5.12c1.19-.87,1.97-1.76,2.33-2.66.35-.9.27-1.99-.26-3.26-.53-1.27-1.54-2.92-3.02-4.96l-8.87-12.16-11.58,8.44-4.7-6.44Zm21.31-5.68l10.81,14.82c1.32,1.81,2.76,2.87,4.33,3.19,1.57.32,3.09-.07,4.58-1.15,1.42-1.04,2.15-2.3,2.2-3.8.05-1.49-.59-3.15-1.91-4.95l-10.81-14.82-9.2,6.71Z"/>
        <path class="cls-1" d="m554.45,217.92l3.07,7.49c-1.2.66-2.1,1.71-2.7,3.14-.6,1.43-.85,3.1-.74,5,.11,1.9.59,3.88,1.43,5.96.77,1.89,1.61,3.36,2.52,4.41.91,1.05,1.85,1.73,2.83,2.01.98.29,1.99.22,3.03-.2,1-.41,1.61-1.09,1.85-2.05.23-.96.2-2.31-.1-4.04-.3-1.73-.79-3.97-1.48-6.71-.54-2.16-.91-4.25-1.11-6.28-.21-2.03-.17-3.92.12-5.65.28-1.74.88-3.25,1.79-4.56.91-1.3,2.22-2.3,3.92-3,2.11-.86,4.2-1.02,6.29-.47,2.08.55,4.05,1.83,5.91,3.83,1.86,2,3.49,4.73,4.9,8.17,2.12,5.18,2.65,9.61,1.59,13.31-1.06,3.69-3.53,6.29-7.4,7.79l-2.95-7.21c2.12-1.04,3.32-2.6,3.59-4.68.27-2.08-.11-4.39-1.16-6.94-.97-2.37-2.12-4.18-3.45-5.42-1.33-1.25-2.85-1.52-4.55-.83-.67.27-1.17.7-1.52,1.27-.35.57-.53,1.38-.53,2.42,0,1.04.13,2.38.42,4.04.29,1.65.73,3.68,1.32,6.07.57,2.23.95,4.31,1.16,6.23.2,1.92.16,3.67-.13,5.23-.29,1.56-.91,2.93-1.85,4.1-.95,1.17-2.31,2.11-4.09,2.84-2.18.89-4.31,1.11-6.38.64-2.07-.47-4.03-1.7-5.88-3.68-1.85-1.99-3.54-4.85-5.07-8.58-1.09-2.66-1.76-5.13-2.02-7.4-.26-2.27-.21-4.34.15-6.21.36-1.87.92-3.51,1.69-4.9.77-1.39,1.65-2.52,2.63-3.38.99-.86,1.96-1.44,2.91-1.74Z"/>
        <path class="cls-1" d="m592.96,268.15l1.72,7.79-32.2,7.1-1.72-7.79,32.2-7.1Zm2.13-17.35l8.8,39.93-6.5,1.43-8.8-39.93,6.5-1.43Z"/>
        <path class="cls-1" d="m565.96,297.26l39.53,16.56.37,8.63-37.97,20.04-.37-8.69,34.24-17.42.16,3.83-35.6-14.33-.37-8.63Zm8.86,9.28l6.65-.28,1.09,25.64-6.65.28-1.09-25.64Z"/>
        <path class="cls-1" d="m567.43,346.28l38.33,5.98-4.06,26.01c-.46,2.96-1.27,5.48-2.42,7.54-1.15,2.06-2.68,3.58-4.59,4.53-1.91.96-4.21,1.23-6.89.81-1.82-.28-3.31-.84-4.47-1.67-1.17-.83-2.06-1.87-2.67-3.12-.61-1.25-1.02-2.64-1.2-4.16-.19-1.53-.21-3.13-.07-4.8l.6-.76c-.47,2.76-1.05,4.99-1.74,6.71-.69,1.71-1.65,2.93-2.87,3.65-1.23.72-2.9.91-5.04.58l-9.12-1.42,1.23-7.88,8.59,1.34c1.46.23,2.64.15,3.53-.24.89-.39,1.6-1.22,2.12-2.49.52-1.27.98-3.15,1.37-5.64l2.32-14.87-14.16-2.21,1.23-7.88Zm19.09,11.05l-2.83,18.13c-.34,2.21-.07,3.98.81,5.31.89,1.33,2.24,2.14,4.05,2.42,1.74.27,3.15-.11,4.24-1.13,1.09-1.02,1.81-2.64,2.15-4.85l2.83-18.13-11.25-1.76Z"/>
        <path class="cls-1" d="m567.96,409.28l-3.12,7.47c-1.32-.38-2.69-.27-4.13.32-1.44.59-2.79,1.6-4.05,3.02-1.27,1.42-2.33,3.16-3.19,5.23-.79,1.88-1.23,3.51-1.33,4.9-.1,1.39.09,2.53.58,3.43.49.9,1.25,1.56,2.29,1.99,1,.42,1.91.37,2.76-.15.84-.52,1.77-1.49,2.78-2.93,1.01-1.44,2.24-3.37,3.69-5.8,1.14-1.91,2.36-3.65,3.65-5.23s2.65-2.89,4.07-3.92c1.43-1.03,2.92-1.68,4.49-1.96,1.57-.28,3.2-.06,4.9.65,2.1.88,3.7,2.25,4.78,4.11,1.08,1.86,1.58,4.16,1.48,6.89-.1,2.73-.87,5.81-2.3,9.24-2.16,5.16-4.91,8.68-8.27,10.55-3.36,1.87-6.94,1.96-10.74.29l3-7.19c2.24.76,4.19.5,5.85-.77,1.66-1.28,3.02-3.19,4.08-5.73.99-2.36,1.45-4.45,1.39-6.28-.06-1.82-.94-3.09-2.64-3.8-.66-.28-1.32-.34-1.97-.17-.65.16-1.35.61-2.09,1.34-.74.73-1.59,1.78-2.55,3.16-.96,1.37-2.08,3.12-3.35,5.23-1.17,1.98-2.37,3.72-3.58,5.23-1.21,1.51-2.48,2.71-3.79,3.62-1.31.9-2.71,1.43-4.21,1.59-1.49.16-3.13-.14-4.9-.88-2.18-.91-3.83-2.26-4.97-4.06-1.13-1.8-1.65-4.05-1.56-6.76.09-2.71.92-5.93,2.47-9.66,1.11-2.66,2.37-4.88,3.79-6.67,1.42-1.79,2.92-3.22,4.49-4.3,1.57-1.08,3.13-1.84,4.66-2.28,1.53-.44,2.94-.62,4.25-.53,1.3.09,2.4.36,3.29.82Z"/>
        <path class="cls-1" d="m559.74,472.04l-4.29,6.72-27.8-17.74,4.29-6.72,27.8,17.74Zm13.77-10.77l-22,34.47-5.61-3.58,21.99-34.47,5.61,3.58Z"/>
        <path class="cls-1" d="m520.1,473.51l16.25,39.66-5.84,6.36-41.02-12.67,5.88-6.4,36.53,11.89-2.6,2.83-15.05-35.3,5.84-6.36Zm-.3,12.83l4.9,4.5-17.35,18.9-4.9-4.5,17.35-18.9Z"/>
        <path class="cls-1" d="m486.46,509.24l22.91,31.3-21.24,15.55c-2.42,1.77-4.77,2.98-7.04,3.63-2.27.65-4.42.64-6.45-.03s-3.84-2.1-5.45-4.3c-1.09-1.48-1.75-2.93-1.99-4.34-.24-1.41-.14-2.77.31-4.09.45-1.32,1.14-2.58,2.09-3.8.95-1.21,2.06-2.36,3.34-3.45l.96-.11c-2.28,1.62-4.27,2.79-5.97,3.52-1.7.72-3.24.91-4.61.55-1.38-.36-2.7-1.4-3.98-3.15l-5.45-7.45,6.43-4.71,5.14,7.01c.87,1.19,1.76,1.97,2.67,2.32.9.35,1.99.26,3.26-.27,1.27-.53,2.92-1.54,4.95-3.03l12.14-8.89-8.46-11.56,6.43-4.71Zm5.71,21.3l-14.8,10.84c-1.81,1.32-2.87,2.77-3.18,4.33-.31,1.57.07,3.09,1.16,4.58,1.04,1.42,2.31,2.15,3.8,2.2,1.49.04,3.15-.59,4.95-1.91l14.8-10.84-6.73-9.19Z"/>
        <path class="cls-1" d="m442.34,554.22l-7.49,3.08c-.66-1.2-1.71-2.09-3.15-2.69-1.43-.6-3.1-.84-5-.73-1.9.11-3.88.59-5.95,1.44-1.89.77-3.35,1.62-4.41,2.52-1.05.91-1.72,1.85-2.01,2.84-.29.98-.22,1.99.21,3.03.41,1,1.1,1.61,2.05,1.85.96.23,2.31.2,4.04-.11,1.73-.3,3.97-.8,6.71-1.49,2.16-.54,4.25-.92,6.28-1.12,2.03-.21,3.92-.17,5.65.11,1.74.28,3.26.88,4.56,1.79,1.3.91,2.31,2.22,3,3.92.87,2.11,1.03,4.2.48,6.29-.55,2.08-1.82,4.06-3.82,5.91-2,1.86-4.72,3.5-8.16,4.91-5.18,2.13-9.61,2.66-13.31,1.61-3.7-1.05-6.3-3.52-7.8-7.39l7.21-2.96c1.05,2.12,2.61,3.32,4.68,3.58,2.08.27,4.39-.12,6.94-1.17,2.37-.97,4.17-2.13,5.42-3.46,1.25-1.33,1.52-2.85.82-4.55-.27-.67-.7-1.17-1.27-1.52-.57-.35-1.38-.52-2.42-.53-1.04,0-2.38.14-4.04.43-1.65.29-3.67.73-6.07,1.33-2.23.57-4.3.96-6.23,1.17-1.92.21-3.67.17-5.23-.12-1.56-.29-2.93-.9-4.1-1.85-1.17-.95-2.12-2.31-2.84-4.08-.9-2.18-1.11-4.31-.64-6.38.47-2.07,1.69-4.03,3.67-5.89,1.98-1.85,4.84-3.55,8.58-5.08,2.66-1.09,5.13-1.77,7.4-2.04,2.27-.26,4.34-.22,6.21.14,1.87.35,3.51.91,4.9,1.68,1.4.77,2.52,1.64,3.38,2.63.86.99,1.44,1.96,1.75,2.91Z"/>
        <path class="cls-1" d="m392.16,592.81l-7.78,1.73-7.15-32.19,7.78-1.73,7.15,32.19Zm17.36,2.1l-39.92,8.86-1.44-6.5,39.92-8.86,1.44,6.5Z"/>
        <path class="cls-1" d="m363.02,565.86l-16.5,39.56-8.62.38-20.1-37.94,8.68-.38,17.47,34.22-3.83.17,14.27-35.62,8.63-.38Zm-9.27,8.87l.29,6.65-25.64,1.13-.29-6.65,25.64-1.13Z"/>
        <path class="cls-1" d="m314.01,567.4l-5.92,38.34-26.01-4.01c-2.96-.46-5.48-1.26-7.54-2.41-2.07-1.15-3.58-2.68-4.54-4.58-.96-1.91-1.23-4.2-.82-6.89.28-1.82.83-3.31,1.66-4.48.83-1.17,1.86-2.06,3.11-2.67,1.25-.62,2.64-1.02,4.16-1.21,1.53-.19,3.13-.21,4.8-.08l.76.6c-2.76-.47-5-1.04-6.71-1.73-1.71-.69-2.93-1.65-3.65-2.87-.72-1.22-.92-2.9-.59-5.04l1.41-9.12,7.88,1.22-1.33,8.59c-.23,1.46-.14,2.64.24,3.53.39.89,1.22,1.59,2.49,2.11,1.28.52,3.16.97,5.65,1.36l14.87,2.3,2.19-14.16,7.88,1.22Zm-11.02,19.11l-18.13-2.8c-2.21-.34-3.98-.07-5.31.82-1.33.89-2.14,2.24-2.42,4.06-.27,1.74.11,3.15,1.14,4.24,1.03,1.09,2.64,1.8,4.86,2.14l18.13,2.8,1.74-11.26Z"/>
        <path class="cls-1" d="m251.01,568.03l-7.47-3.11c.37-1.32.27-2.69-.33-4.13-.59-1.44-1.6-2.79-3.02-4.05-1.42-1.26-3.17-2.32-5.23-3.18-1.88-.78-3.52-1.22-4.9-1.32-1.39-.1-2.53.1-3.43.59-.9.49-1.56,1.26-1.99,2.29-.41,1-.36,1.92.15,2.76.52.84,1.5,1.77,2.94,2.78,1.44,1.01,3.38,2.24,5.81,3.68,1.91,1.14,3.65,2.35,5.24,3.64,1.59,1.29,2.89,2.64,3.93,4.07,1.03,1.42,1.69,2.92,1.97,4.49.28,1.57.07,3.2-.64,4.9-.87,2.1-2.24,3.7-4.1,4.79-1.86,1.09-4.15,1.58-6.88,1.49-2.73-.1-5.81-.86-9.24-2.29-5.17-2.15-8.69-4.9-10.56-8.26-1.87-3.35-1.97-6.94-.31-10.74l7.2,2.99c-.76,2.24-.5,4.19.78,5.85,1.28,1.66,3.19,3.02,5.74,4.08,2.36.98,4.46,1.44,6.28,1.38,1.82-.06,3.09-.95,3.79-2.64.28-.66.33-1.32.17-1.97-.16-.65-.61-1.35-1.34-2.08-.73-.74-1.79-1.59-3.16-2.55-1.37-.96-3.12-2.08-5.23-3.34-1.98-1.17-3.73-2.36-5.23-3.57-1.51-1.21-2.72-2.47-3.62-3.78-.91-1.31-1.44-2.71-1.6-4.2-.16-1.49.13-3.13.87-4.9.91-2.18,2.26-3.83,4.05-4.97,1.79-1.14,4.05-1.66,6.76-1.57,2.71.09,5.93.91,9.66,2.46,2.66,1.1,4.88,2.37,6.67,3.78,1.79,1.42,3.23,2.91,4.3,4.48,1.08,1.57,1.84,3.12,2.29,4.65.45,1.53.63,2.94.54,4.25-.09,1.3-.36,2.4-.82,3.3Z"/>
        <path class="cls-1" d="m199.03,573.66l-34.5-21.94,3.57-5.62,34.5,21.94-3.57,5.62Zm-10.79-13.75l-6.73-4.28,17.69-27.82,6.73,4.28-17.69,27.83Z"/>
        <path class="cls-1" d="m186.7,520.26l-39.63,16.31-6.37-5.83,12.61-41.04,6.41,5.87-11.83,36.55-2.83-2.59,35.27-15.1,6.37,5.83Zm-12.83-.28l-4.49,4.91-18.93-17.32,4.49-4.91,18.93,17.32Z"/>
        <path class="cls-1" d="m150.92,486.67l-31.27,22.96-15.58-21.21c-1.77-2.42-2.99-4.76-3.64-7.03-.65-2.27-.64-4.42.02-6.45.67-2.03,2.1-3.85,4.29-5.45,1.48-1.09,2.93-1.75,4.34-1.99,1.41-.24,2.77-.14,4.09.3,1.32.44,2.59,1.14,3.8,2.08,1.21.94,2.37,2.06,3.46,3.34l.11.96c-1.62-2.28-2.8-4.27-3.53-5.97-.73-1.7-.91-3.24-.56-4.61.35-1.38,1.4-2.7,3.14-3.98l7.44-5.47,4.72,6.43-7.01,5.15c-1.19.87-1.96,1.77-2.32,2.67-.35.9-.26,1.99.27,3.26.54,1.27,1.55,2.92,3.04,4.95l8.91,12.13,11.55-8.48,4.72,6.43Zm-21.29,5.74l-10.86-14.79c-1.32-1.8-2.77-2.86-4.34-3.17-1.57-.31-3.09.08-4.57,1.17-1.42,1.04-2.15,2.31-2.19,3.8-.04,1.49.6,3.14,1.92,4.95l10.86,14.79,9.18-6.74Z"/>
        <path class="cls-1" d="m105.86,442.62l-3.09-7.48c1.2-.67,2.09-1.72,2.69-3.15.6-1.44.84-3.1.72-5-.11-1.9-.6-3.88-1.45-5.95-.78-1.88-1.62-3.35-2.53-4.4-.91-1.05-1.86-1.72-2.84-2.01-.98-.29-1.99-.22-3.03.21-1,.41-1.61,1.1-1.84,2.06-.23.96-.19,2.31.11,4.04.31,1.73.81,3.97,1.5,6.71.54,2.15.92,4.25,1.13,6.28.21,2.03.18,3.92-.1,5.65-.28,1.74-.87,3.26-1.78,4.56-.91,1.31-2.21,2.31-3.91,3.01-2.11.87-4.2,1.03-6.29.49-2.08-.54-4.06-1.82-5.92-3.82-1.86-2-3.5-4.72-4.92-8.15-2.13-5.17-2.68-9.61-1.63-13.3,1.05-3.7,3.51-6.3,7.38-7.81l2.97,7.2c-2.12,1.05-3.31,2.61-3.58,4.69-.27,2.08.13,4.39,1.18,6.94.98,2.36,2.13,4.17,3.47,5.41,1.34,1.24,2.85,1.51,4.55.81.67-.27,1.17-.7,1.52-1.28.35-.57.52-1.38.52-2.42,0-1.04-.14-2.38-.43-4.04-.29-1.65-.74-3.67-1.34-6.06-.57-2.23-.97-4.3-1.18-6.23-.21-1.92-.17-3.67.11-5.23.28-1.57.9-2.93,1.84-4.1.94-1.17,2.3-2.12,4.08-2.85,2.18-.9,4.31-1.12,6.38-.65,2.07.46,4.04,1.69,5.89,3.66,1.86,1.98,3.55,4.84,5.09,8.57,1.1,2.66,1.78,5.12,2.05,7.39.27,2.27.22,4.34-.13,6.21-.35,1.87-.91,3.51-1.67,4.91-.76,1.4-1.64,2.52-2.62,3.39-.98.86-1.95,1.44-2.91,1.75Z"/>
        <path class="cls-1" d="m65.13,409.86l-8.92-39.9,6.5-1.45,8.92,39.9-6.49,1.45Zm2.08-17.36l-1.74-7.78,32.18-7.19,1.74,7.78-32.18,7.19Z"/>
        <path class="cls-1" d="m94.12,363.37l-39.59-16.43-.4-8.62,37.91-20.16.4,8.68-34.19,17.53-.18-3.83,35.64,14.21.4,8.62Zm-8.89-9.26l-6.65.31-1.18-25.63,6.65-.3,1.18,25.63Z"/>
        <path class="cls-1" d="m92.5,314.33l-38.35-5.86,3.97-26.02c.45-2.96,1.25-5.48,2.4-7.55,1.15-2.07,2.67-3.58,4.58-4.55,1.91-.96,4.2-1.24,6.89-.83,1.82.28,3.31.83,4.48,1.65,1.17.83,2.06,1.86,2.68,3.11.62,1.25,1.02,2.63,1.21,4.16.19,1.53.22,3.13.08,4.8l-.6.76c.46-2.76,1.04-5,1.72-6.71.69-1.71,1.64-2.93,2.86-3.66,1.22-.72,2.9-.92,5.03-.6l9.13,1.39-1.2,7.88-8.59-1.31c-1.46-.22-2.64-.14-3.53.25-.89.39-1.59,1.22-2.11,2.5-.52,1.28-.97,3.16-1.35,5.65l-2.27,14.88,14.16,2.16-1.2,7.88Zm-19.12-10.99l2.77-18.14c.34-2.21.06-3.98-.83-5.31-.89-1.33-2.24-2.13-4.06-2.41-1.74-.27-3.15.12-4.24,1.14-1.09,1.03-1.8,2.65-2.14,4.86l-2.77,18.14,11.26,1.72Z"/>
        <path class="cls-1" d="m91.76,251.34l3.1-7.48c1.32.37,2.69.26,4.13-.33,1.44-.59,2.78-1.6,4.04-3.03,1.26-1.42,2.32-3.17,3.17-5.24.78-1.88,1.22-3.52,1.32-4.91.1-1.39-.1-2.53-.59-3.43-.49-.9-1.26-1.56-2.29-1.99-1-.41-1.92-.36-2.76.16-.84.52-1.77,1.5-2.77,2.94-1.01,1.44-2.23,3.38-3.67,5.81-1.14,1.91-2.35,3.66-3.63,5.25-1.28,1.59-2.64,2.9-4.06,3.93-1.42,1.03-2.92,1.69-4.48,1.97-1.57.28-3.2.07-4.9-.63-2.11-.87-3.7-2.24-4.79-4.09-1.09-1.86-1.59-4.15-1.5-6.88.09-2.73.85-5.81,2.27-9.25,2.14-5.17,4.89-8.69,8.24-10.57,3.35-1.88,6.93-1.99,10.74-.32l-2.98,7.2c-2.24-.75-4.19-.49-5.84.79-1.66,1.28-3.01,3.2-4.07,5.75-.98,2.36-1.43,4.46-1.37,6.28.07,1.82.95,3.09,2.65,3.79.67.28,1.32.33,1.97.17.65-.16,1.35-.61,2.08-1.34.74-.73,1.58-1.79,2.54-3.16.96-1.38,2.07-3.12,3.34-5.24,1.17-1.98,2.35-3.73,3.56-5.24,1.21-1.51,2.47-2.72,3.77-3.63,1.31-.91,2.71-1.44,4.2-1.6,1.49-.16,3.13.13,4.9.86,2.18.9,3.84,2.25,4.98,4.04,1.14,1.79,1.67,4.04,1.58,6.76-.08,2.71-.9,5.93-2.44,9.66-1.1,2.66-2.36,4.89-3.77,6.68s-2.91,3.23-4.48,4.31c-1.57,1.08-3.12,1.84-4.65,2.29-1.53.45-2.94.63-4.25.54-1.3-.09-2.4-.36-3.3-.81Z"/>
        <path class="cls-1" d="m86.06,199.35l21.89-34.54,5.62,3.56-21.89,34.54-5.62-3.56Zm13.74-10.81l4.27-6.73,27.85,17.65-4.27,6.74-27.85-17.65Z"/>
        <path class="cls-1" d="m139.44,186.93l-16.37-39.61,5.82-6.38,41.06,12.55-5.86,6.42-36.57-11.78,2.59-2.83,15.15,35.25-5.82,6.38Zm.26-12.83l-4.92-4.49,17.29-18.96,4.92,4.49-17.29,18.96Z"/>
        <path class="cls-1" d="m172.98,151.1l-23.01-31.23,21.19-15.61c2.41-1.78,4.76-2.99,7.03-3.65,2.27-.66,4.42-.65,6.45.01,2.03.67,3.85,2.09,5.46,4.28,1.09,1.48,1.76,2.93,2,4.33.24,1.41.14,2.77-.3,4.09-.44,1.32-1.14,2.59-2.08,3.8-.94,1.22-2.05,2.37-3.33,3.46l-.96.11c2.28-1.63,4.26-2.81,5.96-3.53,1.7-.73,3.23-.92,4.61-.57,1.38.35,2.7,1.4,3.98,3.13l5.48,7.43-6.42,4.73-5.16-7c-.88-1.19-1.77-1.96-2.67-2.31-.9-.35-1.99-.26-3.26.28-1.27.54-2.92,1.55-4.94,3.04l-12.12,8.93,8.5,11.54-6.42,4.73Zm-5.78-21.29l14.77-10.88c1.8-1.33,2.86-2.78,3.17-4.34.31-1.57-.08-3.09-1.17-4.57-1.04-1.42-2.31-2.14-3.81-2.19-1.49-.04-3.14.6-4.94,1.93l-14.77,10.88,6.76,9.17Z"/>
        <path class="cls-1" d="m216.96,105.98l7.48-3.1c.67,1.19,1.72,2.09,3.16,2.68,1.44.6,3.1.83,5,.72,1.9-.12,3.88-.6,5.95-1.46,1.88-.78,3.35-1.63,4.4-2.54,1.05-.91,1.72-1.86,2-2.84.28-.98.21-1.99-.22-3.03-.41-1-1.1-1.61-2.06-1.84-.96-.23-2.31-.19-4.04.12-1.73.31-3.97.81-6.71,1.51-2.15.55-4.25.93-6.28,1.14-2.03.22-3.91.19-5.65-.09-1.74-.27-3.26-.87-4.56-1.77-1.31-.91-2.31-2.21-3.02-3.91-.87-2.1-1.04-4.2-.5-6.28.54-2.08,1.81-4.06,3.81-5.93,1.99-1.87,4.71-3.51,8.14-4.93,5.17-2.14,9.6-2.69,13.3-1.65,3.7,1.04,6.31,3.5,7.82,7.37l-7.2,2.98c-1.05-2.12-2.62-3.31-4.69-3.57-2.08-.26-4.39.13-6.94,1.19-2.36.98-4.17,2.14-5.41,3.47-1.24,1.34-1.51,2.85-.81,4.55.28.66.7,1.17,1.28,1.51.58.35,1.38.52,2.42.52,1.04,0,2.38-.14,4.04-.44,1.65-.3,3.67-.74,6.06-1.35,2.23-.58,4.3-.97,6.23-1.19,1.92-.21,3.67-.18,5.23.1,1.57.28,2.93.89,4.1,1.84,1.17.94,2.12,2.3,2.86,4.07.9,2.18,1.12,4.3.66,6.38-.46,2.07-1.68,4.04-3.66,5.9-1.98,1.86-4.83,3.56-8.56,5.11-2.66,1.1-5.12,1.79-7.39,2.06-2.27.27-4.34.23-6.21-.12-1.87-.35-3.51-.9-4.91-1.66-1.4-.76-2.53-1.63-3.39-2.62-.86-.98-1.45-1.95-1.76-2.91Z"/>
        <path class="cls-1" d="m249.66,65.19l39.89-8.98,1.46,6.49-39.89,8.98-1.46-6.49Zm17.36,2.05l7.78-1.75,7.24,32.17-7.78,1.75-7.24-32.17Z"/>
        <path class="cls-1" d="m296.19,94.11l16.37-39.61,8.62-.41,20.22,37.88-8.68.41-17.59-34.16,3.83-.18-14.16,35.66-8.62.41Zm9.24-8.9l-.31-6.65,25.63-1.22.31,6.65-25.63,1.22Z"/>
        <path class="cls-1" d="m345.24,92.42l5.8-38.35,26.02,3.94c2.96.45,5.48,1.24,7.55,2.39,2.07,1.14,3.59,2.66,4.55,4.57.96,1.9,1.24,4.2.84,6.89-.27,1.82-.82,3.31-1.65,4.48-.82,1.17-1.86,2.06-3.1,2.68-1.25.62-2.63,1.03-4.16,1.22-1.53.19-3.13.22-4.8.09l-.76-.6c2.76.46,5,1.03,6.71,1.71,1.72.68,2.94,1.64,3.66,2.86.72,1.22.93,2.9.6,5.03l-1.38,9.13-7.88-1.19,1.3-8.6c.22-1.46.14-2.64-.26-3.53-.39-.89-1.23-1.59-2.5-2.11-1.28-.52-3.16-.96-5.65-1.34l-14.88-2.25-2.14,14.17-7.88-1.19Zm10.96-19.14l18.14,2.74c2.21.33,3.98.06,5.31-.83,1.33-.89,2.13-2.24,2.4-4.06.26-1.74-.12-3.15-1.15-4.24-1.03-1.09-2.65-1.8-4.86-2.13l-18.14-2.74-1.7,11.26Z"/>
      </g>
      <path class="cls-1" d="m501.86,385.7c-147.98-30.19-165.26-21.38-227.66,116.16,30.19-147.98,21.38-165.26-116.16-227.66,147.98,30.19,165.26,21.38,227.66-116.16-30.19,147.98-21.38,165.26,116.16,227.66Z"/>
    </g>
  </g>
</svg>